<svg xmlns="http://www.w3.org/2000/svg" viewBox="0 0 512 512">
  <defs>
    <pattern id="grid" width="20" height="20" patternUnits="userSpaceOnUse">
      <path d="M20 0H0v20" fill="none" stroke="#978f66" stroke-width="2.5"/>
    </pattern>
  </defs>

  <!-- grid patches -->
  <g opacity="0.9">
    <rect x="330" y="40" width="150" height="120" fill="url(#grid)" transform="rotate(8 405 100)"/>
    <rect x="20" y="360" width="150" height="110" fill="url(#grid)" transform="rotate(-6 95 415)"/>
    <rect x="215" y="215" width="110" height="90" fill="url(#grid)" transform="rotate(10 270 260)"/>
  </g>

  <!-- caramel shards -->
  <g fill="#995f2f">
    <polygon points="380,180 470,60 500,80 415,195" />
    <polygon points="318,205 345,120 372,132 342,215" />
    <polygon points="30,430 150,355 165,382 48,455" />
  </g>

  <!-- cream shards -->
  <g fill="#e4d6a9">
    <polygon points="352,95 398,42 400,140" />
    <polygon points="292,238 336,214 330,262" />
    <polygon points="358,278 448,222 440,250" />
    <polygon points="160,345 195,330 175,430" />
    <polygon points="118,352 250,320 262,346 130,380" />
    <polygon points="82,438 105,428 96,530" />
    <polygon points="288,282 302,300 278,306" />
  </g>

  <!-- letters: shadow layer then face -->
  <g font-family="Georgia, 'Times New Roman', serif" font-weight="700" text-anchor="middle">
    <text x="176" y="330" font-size="330" fill="#170e06" opacity="0.9" transform="translate(14 14)">A</text>
    <text x="352" y="452" font-size="330" fill="#170e06" opacity="0.9" transform="translate(14 14)">S</text>
    <text x="176" y="330" font-size="330" fill="#f1e8d2" stroke="#1d130a" stroke-width="16" paint-order="stroke">A</text>
    <text x="352" y="452" font-size="330" fill="#f1e8d2" stroke="#1d130a" stroke-width="16" paint-order="stroke">S</text>
  </g>
</svg>
